<?xml version="1.0" encoding="utf-8"?>
<!-- Generator: Adobe Illustrator 18.0.0, SVG Export Plug-In . SVG Version: 6.00 Build 0)  -->
<!DOCTYPE svg PUBLIC "-//W3C//DTD SVG 1.1//EN" "http://www.w3.org/Graphics/SVG/1.1/DTD/svg11.dtd">
<svg version="1.1" id="图层_1" xmlns="http://www.w3.org/2000/svg" xmlns:xlink="http://www.w3.org/1999/xlink" x="0px" y="0px"
	 viewBox="0 0 257 100" enable-background="new 0 0 257 100" xml:space="preserve">
<path fill="#37A36D" d="M94.8,53.7C84.7,48.7,75.1,43.4,66.5,38L77,39.5v-2c0-2.2,0.2-4.2,0.5-5.8h6c3.2,0.2,5.7,0.3,7.3,0.3h1.6
	l0.5-10.4L91,21.8c-3.9,0.2-7.9,0.3-12,0.3c0.3-2,0.5-4.2,0.7-6.4l0.1-1.7l-9.7-1l-0.3,1.5c-0.2,1.2-0.4,2.8-0.4,4.8
	c-0.1,1.1-0.2,2.1-0.3,3H46.4c-0.2-2.1-0.5-4.3-0.9-6.5l-0.3-1.6l-10.1,1l0.5,1.9c0.5,1.8,0.9,3.5,1.1,5c-1.3,0-3-0.1-4.9-0.3
	l-8.8,0l0.5,9.9l8.3,0c2.5-0.2,4.4-0.3,6-0.3c0.3,2,0.6,3.9,0.7,5.7l0.2,1.6l8.3-0.4c-7.9,6.9-16.2,13.6-24.8,19.9l-1.4,1.1l6.8,8.3
	l1.3-1.2c1.8-1.6,4.2-3.8,7.2-6.6c1.6-1.4,3.1-2.6,4.3-3.7c-0.7,10.7-3.5,20.1-8.4,28.1l-1.2,1.9l10,3l0.7-1.2
	c5.3-9.4,8.5-21.2,9.4-35.2l0.1-1.6l-4-0.4c3-2.6,6.1-5.1,9.3-7.5c4.5,2.4,9.1,4.9,13.5,7.5h-4.3v9.6c0.2,13,0.1,22-0.3,26.7
	L65,89.2l10.8-0.5l0-1.7c-0.4-13.7-0.5-24.7-0.4-32.8c4.7,2.7,9.3,5.5,13.8,8.4l1.4,0.9l5.9-8.9L94.8,53.7z M54.7,31.7
	c-2,1.9-4.1,3.7-6.1,5.5l0-0.5c-0.2-1.7-0.4-3.4-0.6-5H54.7z M66.8,36.1l-0.5,1.8c-0.5-0.3-1.1-0.7-1.6-1l0.9-0.4l-4.2-4.7h6.4
	C67.6,33.2,67.3,34.6,66.8,36.1z"/>
<path fill="#37A36D" d="M161.5,75.4c-6.5-5-13.6-11.2-21.2-18.6l-1.4-1.4l-5.5,7.6c-0.1-3-0.1-5.6-0.1-7.7c6.6-0.6,13.3-1,20-1.2
	l1.6,0V43.7l-1.9,0.2c-6.6,0.6-13.4,1.2-20.1,1.8v-8.3c11.2,0,20.3,0.1,26.8,0.3l1.7,0.1V27.5H133V16.7h-11.6l0.4,2
	c0.1,0.7,0.3,2.1,0.3,4.9l0,0.2c0.1,1.5,0.2,2.7,0.3,3.7H109c-3.9,0-7.5-0.1-10.7-0.3l-1.8-0.1v10.4l10.3,0c6.8-0.2,12.1-0.2,16-0.1
	v4.3l0,0.1c0.1,1.8,0.2,3.3,0.3,4.6c-6.2,0.6-12.6,0.8-18.9,0.8h-1.7V58l1.9-0.3c2.2-0.3,4.3-0.5,6.4-0.7c-4.5,8.8-8.8,16.1-12.9,22
	l-1.1,1.6l9.4,4.9l0.8-1.5c1.1-1.9,3-5.3,5.9-10.1c4.9-8.5,8-14.2,9.6-17.5l0.2-0.3c0.2,0,0.4,0,0.6,0c0.2,8,0.3,18.3,0.3,30.5v1.8
	l10.7-0.5l-0.1-1.8c-0.2-2.5-0.3-7.8-0.3-15.7c-0.1-1.9-0.1-3.8-0.2-5.5l0.3,0.3c6.2,5.1,13.2,11.2,20.9,18l1.3,1.1l6.9-7.9
	L161.5,75.4z"/>
<linearGradient id="SVGID_1_" gradientUnits="userSpaceOnUse" x1="178.2571" y1="78.1102" x2="225.1288" y2="28.415">
	<stop  offset="0" style="stop-color:#EF4036"/>
	<stop  offset="0.3594" style="stop-color:#EA5D3A"/>
	<stop  offset="0.7637" style="stop-color:#E6733E"/>
	<stop  offset="1" style="stop-color:#E57940"/>
</linearGradient>
<path fill="url(#SVGID_1_)" d="M237.1,68.8l-2.5,0.5c-1.9,0.4-4.9,0.8-8.9,1.3c-1,0.1-1.8,0.2-2.6,0.3c-0.1-2-0.2-3.9-0.2-5.7
	c3.9-0.2,7.9-0.2,11.8-0.2h2.4l-0.6-10.5l-2.2,0.1c-3.7,0.2-7.6,0.4-11.4,0.8v-5.4c3.5-0.5,7.2-0.8,11-1l2.4-0.1l-1.2-10.3l-2.3,0.4
	c-3.1,0.5-6.3,1-9.5,1.3c0.1-1.7,0.2-3.4,0.4-5c3.2,0.1,6.7,0.3,10.2,0.6l2.3,0.2l0.6-10.3h-9.6c-2.4-2.8-4.4-5.5-6-8.1l-1.2-2
	l-6.5,4.4c0.6-0.6,1.2-1.3,1.9-1.9l1.7-1.7l-8.2-7l-1.5,1.7c-6.7,7.9-13.7,15.4-20.8,22.2l-0.5-0.4l-0.1,1c-0.1,0.1-0.1,0.1-0.2,0.2
	c-0.4,0-0.8,0.1-1.3,0.1v-16h-11.3l0.2,2.4c0.4,4.4,0.7,8.8,0.9,13.3c-2.4,0-4.6-0.1-6.6-0.3l-2.3-0.2l-0.6,11.1l2.5-0.2
	c2.3-0.2,4.7-0.3,7.1-0.3v16.2c-2.6,1.1-5.2,2.1-7.7,3l-2.5,0.9l5.2,9.9l2-1.1c6.8-3.6,13.8-6.9,20.8-9.9c0.1,6.9,0,14.3-0.2,22
	l-0.1,2.6l11.3-1.1l-0.2-2.2c0-0.5-0.1-0.9-0.1-1.4l0.8-0.1c10.4-1.3,21.2-2.3,32-2.9l2.4-0.1L237.1,68.8z M202.2,34.8h11
	c0,2.2,0.1,4.3,0.2,6.5c-3.4,0.3-6.9,0.4-10.4,0.4h-1C202.1,39.7,202.1,37.4,202.2,34.8z M214.3,25.3c-1.9-0.1-3.7-0.2-5.6-0.4
	c0.9-0.9,1.8-1.9,2.7-2.8l1.3,1.5C213.3,24.2,213.8,24.7,214.3,25.3z M190.3,52.1l-2.1,1c-0.8,0.4-1.9,1-3.3,1.9v-4.5l0-0.1
	c-0.1-2.4-0.2-4.5-0.3-6.1h4.6l0.4-2.9l2.1,1.7l0.2-0.2c0.2,4.3,0.4,8.8,0.5,13.5L190.3,52.1z M202,52.8l2-0.3
	c1.2-0.2,2.1-0.3,2.7-0.4c0.2,0,0.4-0.1,0.7-0.1l0.1,0c2.4-0.3,4.5-0.6,6.2-0.8c0.1,1.5,0.1,3,0.2,4.5c-3.2,0.1-6.5,0.2-9.9,0.2h-2
	V52.8z M202.5,73c-0.1-2.5-0.3-5-0.4-7.5l0.1,1.1l2.4-0.3c3.1-0.3,6.2-0.6,9.3-0.8c-0.1,2.3-0.3,4.5-0.6,6.5
	c-1.1,0.1-2.5,0.1-4.2,0.3c-2.8,0.2-5,0.4-6.4,0.7L202.5,73z"/>
</svg>
