<?xml version="1.0" encoding="utf-8"?>
<!-- Generator: Adobe Illustrator 18.0.0, SVG Export Plug-In . SVG Version: 6.00 Build 0)  -->
<!DOCTYPE svg PUBLIC "-//W3C//DTD SVG 1.1//EN" "http://www.w3.org/Graphics/SVG/1.1/DTD/svg11.dtd">
<svg version="1.1" id="图层_1" xmlns="http://www.w3.org/2000/svg" xmlns:xlink="http://www.w3.org/1999/xlink" x="0px" y="0px"
	 viewBox="0 0 44 44" enable-background="new 0 0 44 44" xml:space="preserve">
<g>
	<path fill-rule="evenodd" fill="#666" clip-rule="evenodd" d="M30.4,30.6c3.6,0,6.6,3,6.6,6.6v3.7H8.2v-3.7c0-3.6,3-6.6,6.6-6.6H30.4L30.4,30.6
		z M30.4,27.4H14.8c-5.4,0-9.8,4.4-9.8,9.8V44h35.2v-6.8C40.2,31.8,35.8,27.4,30.4,27.4L30.4,27.4"/>
	<path fill-rule="evenodd" fill="#666" clip-rule="evenodd" d="M22.6,3.2c4.6,0,8.4,3.8,8.4,8.4S27.2,20,22.6,20c-4.7,0-8.4-3.8-8.4-8.4
		C14.2,7,17.9,3.2,22.6,3.2L22.6,3.2z M22.6,0C16.2,0,11,5.2,11,11.6c0,6.4,5.2,11.6,11.6,11.6c6.4,0,11.6-5.2,11.6-11.6
		C34.2,5.2,29,0,22.6,0L22.6,0"/>
</g>
</svg>
